<svg width="58" height="70" viewBox="0 0 58 70" fill="none" xmlns="http://www.w3.org/2000/svg">
<path d="M22.1428 6.5531L22.879 6.89041L22.864 6.08077L22.3549 6.09022C22.864 6.08077 22.864 6.08031 22.864 6.07983L22.8639 6.0788L22.8639 6.07642L22.8637 6.07043L22.863 6.05364C22.8624 6.04034 22.8614 6.02286 22.8597 6.00148C22.8564 5.95873 22.8505 5.90026 22.8401 5.82826C22.8192 5.68437 22.7801 5.48563 22.7065 5.24994C22.559 4.7778 22.2731 4.15725 21.721 3.53591C20.9175 2.63154 19.5908 1.76889 17.4166 1.32479C17.5514 1.29662 17.69 1.26834 17.8322 1.2401C19.7746 0.854359 22.3737 0.479174 25.0244 0.511057C27.6824 0.543028 30.3433 0.984007 32.4453 2.18897C34.5214 3.37913 36.0853 5.33155 36.5559 8.48708L36.6849 9.35216L37.3732 8.81297L37.3733 8.81293L37.3734 8.81282L37.3741 8.81226L37.3789 8.8086L37.4001 8.79232C37.4194 8.77758 37.4491 8.75521 37.4885 8.72602C37.5674 8.66763 37.6855 8.58201 37.8391 8.47565C38.1464 8.26283 38.595 7.96748 39.1548 7.64121C40.2771 6.98724 41.8343 6.21626 43.5899 5.73202C45.3462 5.24759 47.2763 5.05682 49.1612 5.53323C50.6816 5.91752 52.1991 6.74224 53.5906 8.2436C53.1592 8.16422 52.6643 8.09614 52.1485 8.07022C50.6311 7.99396 48.645 8.27748 47.864 10.1061L47.6044 10.714L48.257 10.8096L48.2573 10.8097L48.2577 10.8097L48.2584 10.8098L48.2589 10.8099L48.2725 10.8122C48.2858 10.8145 48.3076 10.8184 48.3373 10.8244C48.3967 10.8363 48.4874 10.8562 48.605 10.8871C48.8403 10.949 49.1822 11.0544 49.5942 11.227C50.418 11.5719 51.5197 12.1839 52.6112 13.2493C54.6327 15.2224 56.6798 18.8117 56.7754 25.3206C56.698 25.2292 56.6172 25.136 56.5335 25.0426C56.1995 24.6697 55.8086 24.2798 55.4003 23.974C55.0047 23.6776 54.5294 23.4115 54.0344 23.3822C53.9391 23.3765 53.5592 23.366 53.3898 23.7243C53.3182 23.8756 53.328 24.0195 53.3425 24.1042C53.3575 24.1924 53.3872 24.2717 53.4139 24.3329C53.4959 24.5214 53.6627 24.7809 53.8434 25.062C53.8734 25.1088 53.9039 25.1562 53.9344 25.2039C54.392 25.9201 55.0598 27.0056 55.604 28.5134C56.5572 31.1543 57.1502 35.1455 55.4422 40.7357C55.3896 40.3284 55.3195 39.8913 55.2259 39.4389C54.7987 37.3727 53.8573 34.8579 51.7406 33.521L50.3464 32.6404L51.0013 34.1534L51.0013 34.1534L51.0014 34.1537L51.0016 34.1541L51.0037 34.159L51.0134 34.1823C51.0222 34.2037 51.0357 34.2369 51.0533 34.2814C51.0883 34.3706 51.1395 34.5052 51.2017 34.6824C51.3261 35.0368 51.4945 35.5609 51.667 36.2304C52.0119 37.57 52.3718 39.4885 52.4273 41.7933C52.5264 45.9031 51.6588 51.2458 48.0011 56.7409C48.0856 56.2217 48.1588 55.646 48.2012 55.0408C48.3582 52.8018 48.1075 49.9785 46.2233 48.241L45.3181 47.4063L45.3694 48.6361L45.3694 48.6361L45.3694 48.6365L45.3694 48.6367L45.3696 48.641L45.3702 48.6616C45.3704 48.6707 45.3707 48.6822 45.371 48.6961C45.3713 48.7111 45.3716 48.7289 45.3718 48.7494C45.3728 48.8281 45.373 48.9467 45.3699 49.1013C45.3636 49.4106 45.3439 49.8636 45.29 50.43C45.1819 51.5634 44.937 53.147 44.3894 54.9392C43.4536 58.0021 41.6376 61.6649 38.1154 64.7407C38.4136 64.1047 38.7168 63.3628 38.9608 62.5603C39.7089 60.0993 39.9392 56.9097 37.5061 54.5435L36.7514 53.8096L36.6446 54.8564L36.6446 54.8565L36.6446 54.8568L36.6446 54.8569L36.6442 54.8604L36.6423 54.8775C36.6404 54.8933 36.6375 54.9179 36.6332 54.951C36.6247 55.0171 36.6108 55.1167 36.5901 55.2467C36.5486 55.5066 36.4797 55.8876 36.3706 56.3638C36.1523 57.3166 35.7739 58.6476 35.1347 60.1509C34.0046 62.8088 32.0652 65.9926 28.7646 68.5851C28.7724 68.5625 28.7803 68.5396 28.7881 68.5166C29.14 67.4873 29.5506 66.0709 29.7781 64.5349C30.2259 61.5108 29.9922 57.7757 26.8381 55.8295L26.2908 55.4918L26.0877 56.102L23.3403 64.3535C23.2072 64.254 23.0528 64.1349 22.8813 63.9964C22.2647 63.4985 21.4281 62.7508 20.5558 61.7569C18.8101 59.7678 16.9346 56.8085 16.3722 52.9011L16.1767 51.5428L15.4389 52.6999L15.8682 52.9737C15.4389 52.6999 15.4388 52.7001 15.4387 52.7003L15.4384 52.7006L15.4378 52.7017L15.4358 52.7048L15.4294 52.7151L15.4068 52.7517C15.3876 52.7831 15.3604 52.8285 15.3265 52.887C15.2587 53.004 15.164 53.1737 15.0531 53.3894C14.8314 53.8205 14.5439 54.4378 14.2772 55.1886C13.8965 56.2601 13.5523 57.6199 13.512 59.1068C12.8973 58.1655 12.0687 56.7657 11.2192 54.9394C9.51726 51.2806 7.73278 45.9127 7.41559 39.0907L7.35207 37.7246L6.50674 38.7996L6.90698 39.1143C6.50674 38.7996 6.50658 38.7998 6.50641 38.8L6.50604 38.8005L6.50518 38.8016L6.50294 38.8045L6.49648 38.8129C6.49131 38.8197 6.48443 38.8289 6.47597 38.8404C6.45906 38.8633 6.43583 38.8957 6.40736 38.9373C6.35041 39.0205 6.2724 39.1407 6.18186 39.2968C6.00083 39.609 5.76928 40.0656 5.55602 40.6577C5.31078 41.3384 5.09023 42.1971 4.99809 43.2187C4.97318 43.1572 4.94803 43.0946 4.92267 43.0309C4.3193 41.516 3.60014 39.4179 3.13184 37.0783C2.18962 32.371 2.29025 26.8424 6.16426 23.0314L7.14227 22.0694L5.7734 22.1604L5.8072 22.6685C5.7734 22.1604 5.77324 22.1604 5.77306 22.1605L5.77261 22.1605L5.77137 22.1606L5.76756 22.1608L5.75468 22.1618L5.70869 22.1655C5.66932 22.1689 5.61287 22.1741 5.54162 22.1817C5.39923 22.197 5.19721 22.2219 4.95409 22.2609C4.46965 22.3386 3.81335 22.4735 3.13712 22.7032C2.25581 23.0025 1.23536 23.5002 0.580911 24.3238C0.578947 24.3104 0.577011 24.2969 0.575106 24.2834C0.456859 23.4413 0.45662 22.2897 0.92411 21.0403C1.84728 18.5732 4.67929 15.5249 12.6709 13.8382C13.0598 13.7561 13.2151 13.4118 13.2625 13.1841C13.3145 12.9344 13.2886 12.6493 13.2057 12.3664C13.0368 11.7904 12.605 11.1258 11.824 10.5439C10.5134 9.5674 8.22323 8.82039 4.43602 9.04105C5.63169 8.40328 7.28047 7.61013 9.17729 6.93247C13.1137 5.52618 18.0055 4.65745 22.1428 6.5531ZM53.9742 24.3987C53.9743 24.3987 53.9744 24.3987 53.9745 24.3987L53.9612 24.3986C53.9609 24.3983 53.965 24.3982 53.9742 24.3987Z" fill="#6100FF" stroke="white" stroke-width="1.01832"/>
<path d="M8.24805 27.0366L10.6513 24.6334L9.17472 23.167L6.77149 25.56L5.29492 27.0366L6.77149 28.5132L9.17472 30.9164L10.6513 29.4398L8.24805 27.0366Z" fill="white"/>
<path d="M38.0309 19.0935C37.094 18.7575 34.8435 19.1851 32.6949 19.7452C29.9352 20.4682 27.0432 20.4071 24.2835 19.6841C21.2184 18.8898 17.6644 18.6353 17.6644 18.6353C10.3427 23.9611 12.6136 33.5231 12.6136 33.5231C12.858 32.7288 20.8314 29.5211 27.4403 29.5211C33.0207 29.5211 44.874 35.4477 44.874 35.4477C46.2589 25.4376 40.0573 19.8369 38.0309 19.0935ZM19.5076 28.0038C19.5076 28.0038 16.1777 27.7085 17.1757 23.0038L20.7194 23.8491C20.8925 23.513 21.2286 23.289 21.6257 23.289C22.1858 23.289 22.644 23.7472 22.644 24.3073L24.7723 24.8063C24.7825 24.8063 24.2428 29.2054 19.5076 28.0038ZM37.0635 28.5639C32.3283 29.7655 31.7987 25.3664 31.7987 25.3664L33.927 24.8674C33.927 24.3073 34.3853 23.8491 34.9453 23.8491C35.3425 23.8491 35.6887 24.0833 35.8517 24.4091L39.3954 23.5639C40.4035 28.2584 37.0635 28.5639 37.0635 28.5639Z" fill="white"/>
<path d="M35.8521 24.3989C35.9234 24.5415 35.9641 24.6942 35.9641 24.8572C35.9641 25.4274 35.5059 25.8857 34.9356 25.8857C34.3653 25.8857 33.9071 25.4274 33.9071 24.8572L31.7788 25.3561C31.7788 25.3561 32.3083 29.7553 37.0435 28.5537C37.0435 28.5537 40.3734 28.2584 39.3755 23.5537L35.8521 24.3989Z" fill="#6100FF"/>
<path d="M34.9458 25.8857C35.5161 25.8857 35.9743 25.4274 35.9743 24.8572C35.9743 24.6943 35.9336 24.5313 35.8623 24.3989C35.6892 24.0629 35.3531 23.8389 34.956 23.8389C34.3959 23.8389 33.9377 24.2971 33.9377 24.8572C33.9173 25.4274 34.3755 25.8857 34.9458 25.8857Z" fill="white"/>
<path d="M22.6544 24.3074C22.6544 24.8776 22.1961 25.3359 21.6259 25.3359C21.0556 25.3359 20.5973 24.8776 20.5973 24.3074C20.5973 24.1444 20.6381 23.9815 20.7094 23.8491L17.1656 23.0039C16.1677 27.7085 19.4976 28.0039 19.4976 28.0039C24.2328 29.2055 24.7623 24.8063 24.7623 24.8063L22.6544 24.3074Z" fill="#6100FF"/>
<path d="M21.6362 25.3256C22.2065 25.3256 22.6647 24.8674 22.6647 24.2971C22.6647 23.7371 22.2065 23.2788 21.6464 23.2788C21.2493 23.2788 20.903 23.513 20.7401 23.8389C20.6688 23.9814 20.6281 24.1342 20.6281 24.2971C20.6077 24.8674 21.066 25.3256 21.6362 25.3256Z" fill="white"/>
<path d="M49.1059 27.0366L46.7026 24.6334L48.1792 23.167L50.5824 25.56L52.0488 27.0366L50.5824 28.5132L48.1792 30.9164L46.7026 29.4398L49.1059 27.0366Z" fill="white"/>
<path d="M22.5318 38.0832L24.0568 43.5088H24.1546L25.8067 37.5944H27.2242L25.3179 44.4375H23.2161L21.7497 39.2074H21.6519L20.1856 44.4375H18.0837L16.1774 37.5944H17.595L19.2471 43.5088H19.3448L20.8699 38.0832H22.5318ZM29.5208 38.3276V40.576H33.089V41.3092H29.5208V43.7043H34.0665V44.4375H28.1033V37.5944H34.0665V38.3276H29.5208ZM35.0437 37.5944H38.3675C38.8694 37.5944 39.3028 37.64 39.6677 37.7312C40.0392 37.816 40.3455 37.9398 40.5867 38.1027C40.8278 38.2591 41.007 38.4481 41.1243 38.6697C41.2416 38.8913 41.3003 39.1357 41.3003 39.4029C41.3003 39.7483 41.2025 40.0481 41.007 40.3023C40.8115 40.5565 40.5182 40.7455 40.1272 40.8693C40.616 40.9671 40.9973 41.1593 41.271 41.4461C41.5512 41.7263 41.6913 42.088 41.6913 42.5312C41.6913 43.1178 41.4469 43.5837 40.9581 43.9292C40.4759 44.2681 39.7101 44.4375 38.6608 44.4375H35.0437V37.5944ZM36.4612 41.3092V43.7043H38.6608C39.1496 43.7043 39.5244 43.6066 39.785 43.411C40.0457 43.2155 40.1761 42.9222 40.1761 42.5312C40.1761 42.1141 40.0457 41.8078 39.785 41.6123C39.5244 41.4102 39.1496 41.3092 38.6608 41.3092H36.4612ZM38.3675 40.576C39.3125 40.576 39.785 40.185 39.785 39.4029C39.785 39.0575 39.6645 38.7936 39.4233 38.6111C39.1887 38.4221 38.8368 38.3276 38.3675 38.3276H36.4612V40.576H38.3675Z" fill="white"/>
</svg>
